<svg xmlns="http://www.w3.org/2000/svg" viewBox="0 0 24 24" fill="#0EA5A4">
  <path d="M7 2.75a.75.75 0 011.5 0V4h7V2.75a.75.75 0 011.5 0V4h.75A2.75 2.75 0 0120.5 6.75v11.5A2.75 2.75 0 0117.75 21H6.25A2.75 2.75 0 013.5 18.25V6.75A2.75 2.75 0 016.25 4H7V2.75zM5 9v9.25c0 .414.336.75.75.75h12.5a.75.75 0 00.75-.75V9H5z"/>
  <path d="M8.75 11.5h2a.75.75 0 010 1.5h-2a.75.75 0 010-1.5zm4.5 0h2a.75.75 0 010 1.5h-2a.75.75 0 010-1.5zm-4.5 3.5h2a.75.75 0 010 1.5h-2a.75.75 0 010-1.5zm4.5 0h2a.75.75 0 010 1.5h-2a.75.75 0 010-1.5z"/>
</svg>
